<svg class="animated" id="freepik_stories-ffp2-face-mask" xmlns="http://www.w3.org/2000/svg" viewBox="0 0 500 500" version="1.1" xmlns:xlink="http://www.w3.org/1999/xlink" xmlns:svgjs="http://svgjs.com/svgjs"><style>svg#freepik_stories-ffp2-face-mask:not(.animated) .animable {opacity: 0;}svg#freepik_stories-ffp2-face-mask.animated #freepik--background-simple--inject-2 {animation: 1.5s Infinite  linear floating;animation-delay: 0s;}            @keyframes floating {                0% {                    opacity: 1;                    transform: translateY(0px);                }                50% {                    transform: translateY(-10px);                }                100% {                    opacity: 1;                    transform: translateY(0px);                }            }        .animator-hidden { display: none; }</style><g id="freepik--background-simple--inject-2" class="animable animator-active" style="transform-origin: 253.828px 226.572px;"><path d="M91.92,110.11C119.84,50.66,219,59.05,257.24,100.85s50.7,68.6,85.21,53S421,142.4,423.49,192,385.58,300.26,321.4,317.61,257.24,396.37,172.3,384c-46.31-6.75-47.36-56.86-40.82-98.3S59.55,179.05,91.92,110.11Z" style="fill: #FF9900; transform-origin: 253.828px 226.572px;" id="el5x5d9bzj03h" class="animable"></path><g id="el1rf6s503oof"><path d="M91.92,110.11C119.84,50.66,219,59.05,257.24,100.85s50.7,68.6,85.21,53S421,142.4,423.49,192,385.58,300.26,321.4,317.61,257.24,396.37,172.3,384c-46.31-6.75-47.36-56.86-40.82-98.3S59.55,179.05,91.92,110.11Z" style="fill: rgb(255, 255, 255); opacity: 0.9; transform-origin: 253.828px 226.572px;" class="animable" id="eljw30ewr1gcq"></path></g></g><g id="freepik--Shadow--inject-2" class="animable animator-hidden" style="transform-origin: 250px 416.24px;"><ellipse id="freepik--path--inject-2" cx="250" cy="416.24" rx="193.89" ry="11.32" style="fill: rgb(245, 245, 245); transform-origin: 250px 416.24px;" class="animable"></ellipse></g><g id="freepik--Plants--inject-2" class="animable animator-hidden" style="transform-origin: 252.086px 354.687px;"><path d="M427.94,381.91c.9-4.33,2.13-14.44-5.28-16.89-9.5-3.13-15.14-10.49-14.82-18.81s-9.68-16.42-17.18-8.62-6.5-6-16.5-9.35-18.48,4.78-15.74,12.21-7.13,12.08-18.94,5.76-24.82,5.18-22.32,14.18.45,10-7,7c-7-2.82-19.25,4.51-16.83,14.52Z" style="fill: #FF9900; transform-origin: 360.82px 354.687px;" id="el7j3saoxky5r" class="animable"></path><g id="eli44xlbrqu9c"><path d="M427.94,381.91c.9-4.33,2.13-14.44-5.28-16.89-9.5-3.13-15.14-10.49-14.82-18.81s-9.68-16.42-17.18-8.62-6.5-6-16.5-9.35-18.48,4.78-15.74,12.21-7.13,12.08-18.94,5.76-24.82,5.18-22.32,14.18.45,10-7,7c-7-2.82-19.25,4.51-16.83,14.52Z" style="fill: rgb(255, 255, 255); opacity: 0.1; isolation: isolate; transform-origin: 360.82px 354.687px;" class="animable" id="el10bnd5csbi6"></path></g><path d="M75.55,381.91H178.11c1.14-4.74-2.49-10.23-6.45-11-5-1-10-9.8-10.26-15.4s-9.24-22.83-23.24-12.19-9.75,1.56-19.87-1.42-16.52,5.61-12.07,12.06c0,0-10.18-2.55-14.37,6.95s0,15.4,0,15.4S79.52,375.93,75.55,381.91Z" style="fill: #FF9900; transform-origin: 126.936px 360.915px;" id="el762nc7wma5" class="animable"></path><g id="elj4y5au9vqg"><path d="M75.55,381.91H178.11c1.14-4.74-2.49-10.23-6.45-11-5-1-10-9.8-10.26-15.4s-9.24-22.83-23.24-12.19-9.75,1.56-19.87-1.42-16.52,5.61-12.07,12.06c0,0-10.18-2.55-14.37,6.95s0,15.4,0,15.4S79.52,375.93,75.55,381.91Z" style="fill: rgb(255, 255, 255); opacity: 0.1; isolation: isolate; transform-origin: 126.936px 360.915px;" class="animable" id="elm4hmo3udfr"></path></g></g><g id="freepik--Floor--inject-2" class="animable animator-hidden" style="transform-origin: 251.66px 390.39px;"><path d="M444.66,385.69v13.7h-386v-13.7a4.08,4.08,0,0,1,4-4.3H440.62A4.08,4.08,0,0,1,444.66,385.69Z" style="fill: rgb(38, 50, 56); transform-origin: 251.66px 390.39px;" id="el9ank629jf8w" class="animable"></path><rect x="80.66" y="381.39" width="24" height="18" style="fill: #FF9900; transform-origin: 92.66px 390.39px;" id="elumlu4kawkn" class="animable"></rect><rect x="126.66" y="381.39" width="23" height="18" style="fill: #FF9900; transform-origin: 138.16px 390.39px;" id="elagve1qhyljj" class="animable"></rect><rect x="171.66" y="381.39" width="24" height="18" style="fill: #FF9900; transform-origin: 183.66px 390.39px;" id="elv1fjn62avh" class="animable"></rect><rect x="217.66" y="381.39" width="23" height="18" style="fill: #FF9900; transform-origin: 229.16px 390.39px;" id="el0ucthjm6f8" class="animable"></rect><rect x="262.66" y="381.39" width="23" height="18" style="fill: #FF9900; transform-origin: 274.16px 390.39px;" id="eldcmn96oont5" class="animable"></rect><rect x="307.66" y="381.39" width="24" height="18" style="fill: #FF9900; transform-origin: 319.66px 390.39px;" id="elh5xvorguaco" class="animable"></rect><rect x="353.66" y="381.39" width="23" height="18" style="fill: #FF9900; transform-origin: 365.16px 390.39px;" id="el0ni26f5bcrh" class="animable"></rect><rect x="398.66" y="381.39" width="24" height="18" style="fill: #FF9900; transform-origin: 410.66px 390.39px;" id="elp87hwxbf0k" class="animable"></rect><g id="elahzpbhrfnbq"><g style="opacity: 0.6; isolation: isolate; transform-origin: 251.66px 390.39px;" class="animable" id="elq2ro92zcdcq"><rect x="80.66" y="381.39" width="24" height="18" style="fill: rgb(255, 255, 255); transform-origin: 92.66px 390.39px;" id="elef1jmgzmpgi" class="animable"></rect><rect x="126.66" y="381.39" width="23" height="18" style="fill: rgb(255, 255, 255); transform-origin: 138.16px 390.39px;" id="elja7yowkxv8" class="animable"></rect><rect x="171.66" y="381.39" width="24" height="18" style="fill: rgb(255, 255, 255); transform-origin: 183.66px 390.39px;" id="eleshrgrqopg9" class="animable"></rect><rect x="217.66" y="381.39" width="23" height="18" style="fill: rgb(255, 255, 255); transform-origin: 229.16px 390.39px;" id="el7a6z0rqnxc6" class="animable"></rect><rect x="262.66" y="381.39" width="23" height="18" style="fill: rgb(255, 255, 255); transform-origin: 274.16px 390.39px;" id="els3cbtwnhmdj" class="animable"></rect><rect x="307.66" y="381.39" width="24" height="18" style="fill: rgb(255, 255, 255); transform-origin: 319.66px 390.39px;" id="el59pjv8offvm" class="animable"></rect><rect x="353.66" y="381.39" width="23" height="18" style="fill: rgb(255, 255, 255); transform-origin: 365.16px 390.39px;" id="elkf9x2a2ub3l" class="animable"></rect><rect x="398.66" y="381.39" width="24" height="18" style="fill: rgb(255, 255, 255); transform-origin: 410.66px 390.39px;" id="el3zlxukqygv6" class="animable"></rect></g></g><g id="eltan4h1lpba"><path d="M444.66,385.69v13.7h-386v-13.7a4.08,4.08,0,0,1,4-4.3H440.62A4.08,4.08,0,0,1,444.66,385.69Z" style="fill: rgb(255, 255, 255); opacity: 0.1; isolation: isolate; transform-origin: 251.66px 390.39px;" class="animable" id="el7jncw25fpwq"></path></g></g><g id="freepik--Character--inject-2" class="animable animator-hidden" style="transform-origin: 143.527px 279.493px;"><path d="M121.64,248.94s7.85-18.82,17.64-32.4l-1.82-2.24S125,230.69,117.81,249.12Z" id="el4oa35y7e17" class="animable" style="transform-origin: 128.545px 231.71px;"></path><path d="M183.24,219.7a4.88,4.88,0,0,1-6.72,4.61,6.36,6.36,0,0,1-2.6-1.9c-2.29-2.73-4.29-15.22-5.39-23.45-.56-4.29-.89-7.43-.89-7.43l3.12-8.71C173.86,183.7,183.38,214.82,183.24,219.7Z" style="fill: #FF9900; transform-origin: 175.441px 203.745px;" id="el3f3ibf76wh7" class="animable"></path><g id="el1g5eo3ip79v"><path d="M176.52,224.31a6.36,6.36,0,0,1-2.6-1.9c-2.29-2.73-4.29-15.22-5.39-23.45a13.16,13.16,0,0,1,4.06-6.11S183.78,216.17,176.52,224.31Z" style="opacity: 0.2; isolation: isolate; transform-origin: 173.75px 208.58px;" class="animable" id="elaukw2nms31k"></path></g><path d="M167.1,159.17s6,10.08,4.62,14.16a5.5,5.5,0,0,1-5.14,4s2.1-1.51,1-4.71c0,0-.17,4.07-7.4,6.57s-19.67,2.9-21.22-3.08c0,0-.89,2.31.33,3.73,0,0-5.56-1-7-4.07-2.08-4.63,2.74-15.17,2.74-15.17S130.53,145,149.9,140.13c0,0,7.64,6.22,11.45,6.33S170.91,153.79,167.1,159.17Z" style="fill: rgb(38, 50, 56); transform-origin: 151.848px 160.521px;" id="el5zj9wccsxkr" class="animable"></path><polygon points="159.69 180.93 141.9 179.38 135.67 216.54 173.93 216.54 159.69 180.93" style="fill: #FF9900; transform-origin: 154.8px 197.96px;" id="eljmmou2mhu7" class="animable"></polygon><g id="elprnfe2il5v"><polygon points="159.69 180.93 141.9 179.38 135.67 216.54 173.93 216.54 159.69 180.93" style="opacity: 0.2; isolation: isolate; transform-origin: 154.8px 197.96px;" class="animable" id="eltmn5obs8mb"></polygon></g><path d="M146.52,280.94c-1.32,3.49-2.53,7-3.63,10.5-5.55,17.58-8.4,38.47-8.4,38.47-14.86,30-25.29,75.17-25.29,75.17l5.5,1.84,36.13-80.33L161.56,299Z" style="fill: rgb(238, 193, 187); transform-origin: 135.38px 343.93px;" id="el5afzealvbme" class="animable"></path><path d="M109,400.89c.33-.65,8.13,3.77,8.13,3.77s2.51,7.45,6.77,10.91.17,5.05-5.2,2.44l-13.31-6.46C101.54,409.7,105.51,407.6,109,400.89Z" style="fill: rgb(38, 50, 56); transform-origin: 114.741px 410.066px;" id="el0m7yecvi7psf" class="animable"></path><path d="M117.5,406.14s0-.05,0-.08h0a.25.25,0,0,1,0-.08h0a.22.22,0,0,1,0-.08h0l.06-.08c.08-.08,1.66-1.61,3-1.54a1.39,1.39,0,0,1,1,.54.8.8,0,0,1,.2.93c-.23.41-1,.56-1.83.59a3.68,3.68,0,0,1,1.71,1.07,1,1,0,0,1,.17.76c-.12.53-.4.71-.62.76a1.22,1.22,0,0,1-.8-.15A11.05,11.05,0,0,1,117.5,406.14Zm.8.22c.94,1.08,2.2,2.24,2.73,2.11,0,0,.19,0,.26-.4a.48.48,0,0,0-.09-.39,2.24,2.24,0,0,0-.86-.64A10.86,10.86,0,0,0,118.3,406.36Zm2.16-1.61a3.92,3.92,0,0,0-2.22,1.06c1.41.13,2.87.06,3.06-.29.06-.11-.07-.3-.15-.41a1,1,0,0,0-.33-.27A1.06,1.06,0,0,0,120.46,404.75Z" style="fill: #FF9900; transform-origin: 119.664px 406.611px;" id="elt1k1wo3rm9" class="animable"></path><path d="M170.57,280.74A125.64,125.64,0,0,1,162,311c-4.48,10.41-9.43,18.07-13,26-6.36,14-22.81,47.21-22.81,47.21l-10-8.31s16.57-42.33,17.76-50.64c.77-5.38,1.51-34.31,1.94-54,.23-10.75.37-18.76.37-18.76l31.45-25.11A129.32,129.32,0,0,1,170.57,280.74Z" style="fill: #FF9900; transform-origin: 144.15px 305.8px;" id="elltc47nm3y7i" class="animable"></path><g id="el69vr9tw4z2f"><path d="M162,311c-4.48,10.41-9.43,18.07-13,26-6.36,14-22.81,47.21-22.81,47.21l-10-8.31s16.57-42.33,17.76-50.64c.77-5.38,1.51-34.31,1.94-54l9.31-19.55,12.07,4.85-3.94,15.16Z" style="opacity: 0.2; isolation: isolate; transform-origin: 139.095px 317.96px;" class="animable" id="el4gec5pwny7e"></path></g><g id="elus6yd2a3q9a"><path d="M170.57,280.74A125.64,125.64,0,0,1,162,311c-4.48,10.41-9.43,18.07-13,26-6.36,14-22.81,47.21-22.81,47.21l-10-8.31s16.57-42.33,17.76-50.64c.77-5.38,1.51-34.31,1.94-54,.23-10.75.37-18.76.37-18.76l31.45-25.11A129.32,129.32,0,0,1,170.57,280.74Z" style="fill: rgb(255, 255, 255); opacity: 0.4; transform-origin: 144.15px 305.8px;" class="animable" id="eldyfbqusytkc"></path></g><path d="M150.45,343c8.29,31.57,23.87,69,23.87,69l5.4-2.1L163.9,343Z" style="fill: rgb(238, 193, 187); transform-origin: 165.085px 377.5px;" id="el5f71aam43jk" class="animable"></path><path d="M171.46,409c-.15-.71,8.68-2.29,8.68-2.29s6.68,4.13,12.17,4.09,3.36,3.77-2.45,5.2L175.5,419.5C171.37,420.51,173.09,416.37,171.46,409Z" style="fill: rgb(38, 50, 56); transform-origin: 183.475px 413.18px;" id="eljhduq669gq" class="animable"></path><path d="M181.38,407.59l-.08,0h0l-.06-.05h0a.15.15,0,0,1,0-.07h0a.17.17,0,0,1,0-.1c0-.11.25-2.3,1.3-3.08a1.42,1.42,0,0,1,1.13-.24c.44.09.7.29.75.59.09.46-.42,1.07-1,1.62a3.68,3.68,0,0,1,2-.26,1,1,0,0,1,.61.47.86.86,0,0,1,0,1,1.21,1.21,0,0,1-.71.4A11.34,11.34,0,0,1,181.38,407.59Zm.76-.34c1.42.23,3.13.32,3.45-.12,0,0,.12-.15-.05-.47a.52.52,0,0,0-.32-.25,2.28,2.28,0,0,0-1.08.06A11.39,11.39,0,0,0,182.14,407.25Zm.64-2.62a3.87,3.87,0,0,0-1,2.24c1.16-.81,2.24-1.79,2.17-2.18,0-.13-.25-.19-.38-.22a1,1,0,0,0-.43,0A1.25,1.25,0,0,0,182.78,404.63Z" style="fill: #FF9900; transform-origin: 183.711px 405.975px;" id="elwc5i4shfvq" class="animable"></path><path d="M134.37,224s-12.19,25.71-7.89,50,17.33,55.41,20.84,63,16.61,52.29,16.61,52.29l11.34-3.69S165.14,341.1,162,325.64c-1.5-7.31-14.38-59.34-14.38-59.34s22.06-16.39,20.5-42Z" style="fill: #FF9900; transform-origin: 150.416px 306.645px;" id="elxa8t0efyta" class="animable"></path><g id="eltmq6u5o2ncb"><path d="M134.37,224s-12.19,25.71-7.89,50,17.33,55.41,20.84,63,16.61,52.29,16.61,52.29l11.34-3.69S165.14,341.1,162,325.64c-1.5-7.31-14.38-59.34-14.38-59.34s22.06-16.39,20.5-42Z" style="fill: rgb(255, 255, 255); opacity: 0.4; transform-origin: 150.416px 306.645px;" class="animable" id="elzssqrw703ee"></path></g><polygon points="146.43 229.76 164.05 230.03 164.25 224.73 146.61 224.92 146.43 229.76" id="ell6nmxfdf7e" class="animable" style="transform-origin: 155.34px 227.38px;"></polygon><polygon points="165.81 224.71 165.6 230.05 167.38 230.08 167.87 224.69 165.81 224.71" id="eld1gk1im8jrr" class="animable" style="transform-origin: 166.735px 227.385px;"></polygon><polygon points="145.06 224.94 135.71 225.03 135.3 229.59 144.87 229.74 145.06 224.94" id="el9lug8s3i1u6" class="animable" style="transform-origin: 140.18px 227.34px;"></polygon><rect x="153.28" y="225.11" width="6.86" height="5.2" style="fill: rgb(255, 255, 255); transform-origin: 156.71px 227.71px;" id="elf3nek4kgkyd" class="animable"></rect><path d="M130.12,183.35s22.16-4.88,40.45,2.24a169.51,169.51,0,0,1-2.7,39.1l-33.85.24s1.83-9.21-5.69-27Z" style="fill: rgb(38, 50, 56); transform-origin: 149.543px 203.324px;" id="eljlp79q69s6j" class="animable"></path><path d="M154.89,188.57c-7.78-1.91-9.77-5.56-9.77-5.56,3.58-2.67,3.51-7.23,3-10.13a16,16,0,0,0-.68-2.69l9.31,2.86a27.71,27.71,0,0,0-.83,4,12.25,12.25,0,0,0-.07,3c.32,2.91,1.94,3.14,1.94,3.14C159.1,186.44,154.89,188.57,154.89,188.57Z" style="fill: rgb(238, 193, 187); transform-origin: 151.581px 179.38px;" id="elyywi6yoh08l" class="animable"></path><g id="el9b6rsjroo7"><path d="M155.92,177a12.25,12.25,0,0,0-.07,3c-3.71-.93-6.23-4.28-7.73-7.11a16,16,0,0,0-.68-2.69l9.31,2.86A27.71,27.71,0,0,0,155.92,177Z" style="opacity: 0.2; isolation: isolate; transform-origin: 152.095px 175.1px;" class="animable" id="elzmhjx9w0hbn"></path></g><path d="M154.09,146.78c8.33.19,10.9,4.71,11.32,13.3.52,10.74-2,18.31-12.39,15.78C139,172.43,140.26,146.47,154.09,146.78Z" style="fill: rgb(238, 193, 187); transform-origin: 154.283px 161.564px;" id="elgz13b8gipi8" class="animable"></path><path d="M160,159.5a17.33,17.33,0,0,0,2.34,3.5,2.29,2.29,0,0,1-2.21.9Z" style="fill: rgb(212, 130, 125); transform-origin: 161.17px 161.715px;" id="elddd8iakfwj" class="animable"></path><path d="M155,158.7c0,.68-.37,1.24-.83,1.24s-.82-.56-.82-1.24.36-1.24.82-1.24S155,158,155,158.7Z" style="fill: rgb(38, 50, 56); transform-origin: 154.175px 158.7px;" id="elfviqoc5cugj" class="animable"></path><path d="M153.94,157.49l1.49-.58S154.69,158.16,153.94,157.49Z" style="fill: rgb(38, 50, 56); transform-origin: 154.685px 157.299px;" id="elenwhb07yqa9" class="animable"></path><path d="M163.46,158.55c0,.68-.36,1.24-.82,1.24s-.83-.55-.83-1.24.37-1.24.83-1.24S163.46,157.87,163.46,158.55Z" style="fill: rgb(38, 50, 56); transform-origin: 162.635px 158.55px;" id="elenm3iku6d0v" class="animable"></path><path d="M162.45,157.35l1.48-.59S163.19,158,162.45,157.35Z" style="fill: rgb(38, 50, 56); transform-origin: 163.19px 157.149px;" id="elnnpwii8wuc" class="animable"></path><path d="M151.37,154.48a.32.32,0,0,1-.23-.09.34.34,0,0,1,0-.49,4.61,4.61,0,0,1,4-1.3.35.35,0,0,1-.11.7,4,4,0,0,0-3.32,1A.32.32,0,0,1,151.37,154.48Z" style="fill: rgb(38, 50, 56); transform-origin: 153.238px 153.513px;" id="eldgfjtz86spd" class="animable"></path><path d="M164.37,153.85a.35.35,0,0,1-.21-.07,3.52,3.52,0,0,0-3-.71.36.36,0,0,1-.45-.22.35.35,0,0,1,.22-.45,4.17,4.17,0,0,1,3.62.8.36.36,0,0,1,.09.5A.38.38,0,0,1,164.37,153.85Z" style="fill: rgb(38, 50, 56); transform-origin: 162.697px 153.064px;" id="elg9uq287uahi" class="animable"></path><path d="M158.88,167.14a20.73,20.73,0,0,0-1,2.87c-.18,0-.36,0-.53-.06-2.42-.3-3.44-1.24-3.84-2.19a3,3,0,0,1-.21-1.47,3.31,3.31,0,0,1,.17-.83,11.54,11.54,0,0,0,4.63,1.57C158.56,167.11,158.88,167.14,158.88,167.14Z" style="fill: rgb(38, 50, 56); transform-origin: 156.081px 167.735px;" id="el7ial7y3iqmm" class="animable"></path><path d="M158.06,167l-.33.84c-2.28-.29-3.84-.8-4.47-1.58a3.31,3.31,0,0,1,.17-.83A11.54,11.54,0,0,0,158.06,167Z" style="fill: rgb(255, 255, 255); transform-origin: 155.66px 166.635px;" id="eltwv7djyuu5" class="animable"></path><path d="M157.31,170c-2.42-.3-3.44-1.24-3.84-2.19a7.88,7.88,0,0,1,2.61.87A3,3,0,0,1,157.31,170Z" style="fill: rgb(222, 87, 83); transform-origin: 155.39px 168.905px;" id="elvfakw5sivu" class="animable"></path><path d="M144.67,160.61s4.05-6.75,3.58-12.05c0,0,16.65-6.36,17.09,10.4,0,0,1.95-14.83-12.36-15.49s-14.72,20.29-7.47,26.69C145.51,170.16,142.17,164.83,144.67,160.61Z" style="fill: rgb(38, 50, 56); transform-origin: 153.157px 156.807px;" id="ela7n7g67n6h7" class="animable"></path><path d="M146,162.4a3.64,3.64,0,0,0-3.85-3.43c-2.59.22-3.94,5.49,2.45,6.91C145.51,166.08,146.05,165.2,146,162.4Z" style="fill: rgb(238, 193, 187); transform-origin: 142.999px 162.435px;" id="elpggygiu5nlc" class="animable"></path><path d="M145.22,142.71s4.62-3.51,8.66-3.37,5.39,2.49,5.39,2.49a5.32,5.32,0,0,1,4.85-.63c2.92,1,6.61,5.86,7.09,12.68s-5,8.32-5,8.32,2.69-11.67-6.93-14.07c0,0-3.58-1.72-5.52,1.18s-.67,10.78-8.68,8.93S140.71,146.38,145.22,142.71Z" style="fill: rgb(38, 50, 56); transform-origin: 155.796px 150.768px;" id="elbrif711c2fh" class="animable"></path><path d="M130.12,183.35c-6.07,1.89-9.87,29.74-11.78,35.2-1.43,4.09-15.21,29.74-15.21,29.74s-12.68,3.53-11.49,5.51,4.55,5.14,6.53,5.54,8.11-4.55,8.7-5.94a12.05,12.05,0,0,0,.6-3.79s14.71-22.19,16.55-26.86c1.39-3.53,10.51-27.07,10.51-27.07s1.78-2.78,0-7.11S130.12,183.35,130.12,183.35Z" style="fill: rgb(238, 193, 187); transform-origin: 113.441px 221.356px;" id="elvow3h9vr8v" class="animable"></path><path d="M160.92,160.67l-11,2.17s1.18,5.44-1.61,8.94a20.08,20.08,0,0,0,8.57,4.64s7.68,0,9.59-7c.81-3-.85-6.58-.85-6.58Z" style="fill: #FF9900; transform-origin: 157.501px 168.545px;" id="elynxcdry3gwe" class="animable"></path><g id="elfztzzpiw3i"><path d="M148.26,171.78a20,20,0,0,0,8.57,4.64,8.67,8.67,0,0,0,1-.08c2.14-.27,7.11-1.49,8.59-7a10.43,10.43,0,0,0-.57-5.88,6.18,6.18,0,0,0-.28-.7l-4.65-2.14-11,2.18S151,168.27,148.26,171.78Z" style="fill: rgb(255, 255, 255); opacity: 0.7; transform-origin: 157.434px 168.52px;" class="animable" id="elv4krcp101dr"></path></g><path d="M148.93,171.72a37.5,37.5,0,0,0,8.9,4.62c2.14-.27,7.11-1.49,8.59-7a10.43,10.43,0,0,0-.57-5.88l-4.61-2.37-10.79,2.1C150.67,164.65,151.05,168.7,148.93,171.72Z" style="fill: rgb(255, 255, 255); transform-origin: 157.769px 168.715px;" id="elzs0p11ttx6q" class="animable"></path><g id="eltzltd0htw8"><path d="M156.83,176.42a8.67,8.67,0,0,0,1-.08c2.14-.27,7.11-1.49,8.59-7a10.43,10.43,0,0,0-.57-5.88,6.18,6.18,0,0,0-.28-.7l-4.65-2.14S167.31,171.81,156.83,176.42Z" style="opacity: 0.2; isolation: isolate; transform-origin: 161.719px 168.52px;" class="animable" id="elm32oxinht2"></path></g><path d="M151.34,164a.21.21,0,0,0,.12,0,.24.24,0,0,0,0-.35c-.07-.09-1.77-2.23-6.69-4.22a.25.25,0,0,0-.32.14.25.25,0,0,0,.14.33c4.77,1.93,6.46,4,6.48,4.06A.23.23,0,0,0,151.34,164Z" style="fill: #FF9900; transform-origin: 147.983px 161.72px;" id="elxczwhimoshj" class="animable"></path><path d="M149.75,172.55a.25.25,0,0,0,0-.49s-3.79-.93-6.25-6.33a.25.25,0,0,0-.46.21c2.58,5.64,6.43,6.57,6.6,6.61Z" style="fill: #FF9900; transform-origin: 146.484px 169.067px;" id="el9mt0171dn1p" class="animable"></path><g id="el88n4bplt5u7"><g style="opacity: 0.8; transform-origin: 147.983px 161.72px;" class="animable" id="elkhzrwrkf4f"><path d="M151.34,164a.21.21,0,0,0,.12,0,.24.24,0,0,0,0-.35c-.07-.09-1.77-2.23-6.69-4.22a.25.25,0,0,0-.32.14.25.25,0,0,0,.14.33c4.77,1.93,6.46,4,6.48,4.06A.23.23,0,0,0,151.34,164Z" style="fill: rgb(255, 255, 255); transform-origin: 147.983px 161.72px;" id="el7kkhoj1mrux" class="animable"></path></g></g><g id="el1c4f5biu3zw"><g style="opacity: 0.8; transform-origin: 146.484px 169.067px;" class="animable" id="ela44ai2qdgm"><path d="M149.75,172.55a.25.25,0,0,0,0-.49s-3.79-.93-6.25-6.33a.25.25,0,0,0-.46.21c2.58,5.64,6.43,6.57,6.6,6.61Z" style="fill: rgb(255, 255, 255); transform-origin: 146.484px 169.067px;" id="eln7e6n01wur" class="animable"></path></g></g><g id="elmtkyqpet7kj"><g style="opacity: 0.2; isolation: isolate; transform-origin: 156.701px 170.175px;" class="animable" id="elnl4tahw2tth"><path d="M154.09,169l-.26.72.92.25-.06.17-.93-.25c-.09.26-.19.52-.29.78l-.18-.05c.22-.62.45-1.23.68-1.84l1.23.32-.06.17Q154.62,169.1,154.09,169Z" id="el8n5a99v654d" class="animable" style="transform-origin: 154.245px 169.725px;"></path><path d="M155.73,169.35l-.27.73c.31.06.63.13.95.18l-.06.17-1-.18-.28.78-.2,0c.23-.62.46-1.23.68-1.85.42.1.84.18,1.27.25l-.06.17C156.44,169.5,156.08,169.43,155.73,169.35Z" id="el51nlh84va75" class="animable" style="transform-origin: 155.845px 170.105px;"></path><path d="M158.52,170.26a.89.89,0,0,1-1,.55l-.51-.07c-.07.2-.15.39-.22.58l-.2,0,.69-1.84.7.1C158.45,169.61,158.66,169.87,158.52,170.26Zm-.21,0c.11-.29,0-.48-.41-.52l-.5-.07c-.11.31-.23.61-.34.92l.5.07A.65.65,0,0,0,158.31,170.24Z" id="el8hgdpwefzy" class="animable" style="transform-origin: 157.576px 170.4px;"></path><path d="M159.73,171.4l-.07.17c-.45,0-.9,0-1.35-.08l.05-.13,1.08-.7c.29-.19.38-.31.43-.44s0-.35-.33-.37a.92.92,0,0,0-.6.17l-.1-.12a1.16,1.16,0,0,1,.78-.22c.4,0,.57.22.46.53a1.19,1.19,0,0,1-.53.56l-.89.58Z" id="elp4636nqfizh" class="animable" style="transform-origin: 159.211px 170.623px;"></path></g></g><polygon points="176.13 382.65 161.96 387.83 164.13 391.26 176.13 386.96 176.13 382.65" style="fill: #FF9900; transform-origin: 169.045px 386.955px;" id="el3xe9lkxruta" class="animable"></polygon><g id="elv5mtm5tapjd"><polygon points="176.13 382.65 161.96 387.83 164.13 391.26 176.13 386.96 176.13 382.65" style="fill: rgb(255, 255, 255); opacity: 0.8; transform-origin: 169.045px 386.955px;" class="animable" id="elsdy7g23s2zn"></polygon></g><polygon points="128.33 383.25 115.8 374.83 114.31 378.6 124.84 385.79 128.33 383.25" style="fill: #FF9900; transform-origin: 121.32px 380.31px;" id="elbctppjc75mi" class="animable"></polygon><g id="el62r0omcwrme"><polygon points="128.33 383.25 115.8 374.83 114.31 378.6 124.84 385.79 128.33 383.25" style="fill: rgb(255, 255, 255); opacity: 0.8; transform-origin: 121.32px 380.31px;" class="animable" id="ely8ngxax7wr"></polygon></g><path d="M128.32,200.05c.89,9.5,2.52,17.87,2.52,17.87l2.55.77,6.79,2,8.66-34.49-6.94-6.86-1.72,1.55c-12.2,1-12.31,4.25-12.31,4.37A101.3,101.3,0,0,0,128.32,200.05Z" style="fill: #FF9900; transform-origin: 138.309px 200.015px;" id="elertfsd4nudk" class="animable"></path><polygon points="141.9 179.38 139.28 181.01 142.51 189.54 148.84 186.24 141.9 179.38" style="fill: #FF9900; transform-origin: 144.06px 184.46px;" id="els65kxdujf79" class="animable"></polygon><g id="ell8v2v4ugofa"><polygon points="141.9 179.38 139.28 181.01 142.51 189.54 148.84 186.24 141.9 179.38" style="fill: rgb(255, 255, 255); opacity: 0.2; transform-origin: 144.06px 184.46px;" class="animable" id="el7ke56cpdpje"></polygon></g><g id="el5zrfh6qrg5s"><path d="M128.32,200.05c.89,9.5,2.52,17.87,2.52,17.87l2.55.77c3.61-9.69-1.11-22.31-1.11-22.31Z" style="opacity: 0.2; isolation: isolate; transform-origin: 131.535px 207.535px;" class="animable" id="elt3poa10rd7p"></path></g><path d="M129.23,173.86a.36.36,0,0,1-.34-.25c-1.28-4.39,1.47-7.74,3.9-10.7a30.14,30.14,0,0,0,2-2.54c2.27-3.45,3.5-9.2,3.51-9.26a.35.35,0,0,1,.42-.27.35.35,0,0,1,.27.42c0,.24-1.27,5.93-3.61,9.5a32,32,0,0,1-2,2.6c-2.32,2.82-4.94,6-3.77,10a.35.35,0,0,1-.24.44Z" style="fill: rgb(38, 50, 56); transform-origin: 133.782px 162.346px;" id="elh9euowvdd34" class="animable"></path><path d="M128.33,184.35s-4.86,4.07-10,30.21l-14.64,29.77,7.12,2.87,16.9-27.69,3.74-13s.86-8.55,0-14.5S128.33,184.35,128.33,184.35Z" style="fill: #FF9900; transform-origin: 117.761px 215.775px;" id="el1hjlql12dxv" class="animable"></path><path d="M160.47,181.72l-.78,3.3,11.07,34.49,3.34-1.12a224.06,224.06,0,0,0-3.34-35.57Z" style="fill: #FF9900; transform-origin: 166.895px 200.615px;" id="el7bn20v665xa" class="animable"></path><polygon points="159.69 180.93 159.16 186.21 163.47 188.57 163.96 181.72 159.69 180.93" style="fill: #FF9900; transform-origin: 161.56px 184.75px;" id="elbfgwjl3n917" class="animable"></polygon><g id="el9y9piqwv0yr"><polygon points="159.69 180.93 159.16 186.21 163.47 188.57 163.96 181.72 159.69 180.93" style="fill: rgb(255, 255, 255); opacity: 0.2; transform-origin: 161.56px 184.75px;" class="animable" id="elibzmf4nszue"></polygon></g><polygon points="112.57 246.34 103.74 242.25 102.16 245.29 110.46 248.94 112.57 246.34" style="fill: #FF9900; transform-origin: 107.365px 245.595px;" id="el1achyyczhbe" class="animable"></polygon><g id="elpp6k5r20yh"><polygon points="112.57 246.34 103.74 242.25 102.16 245.29 110.46 248.94 112.57 246.34" style="fill: rgb(255, 255, 255); opacity: 0.2; transform-origin: 107.365px 245.595px;" class="animable" id="elwjgaa24yxuc"></polygon></g><path d="M167.64,182.27s-2,41.48-27.66,66.85l4.08,2.54s24.3-25.5,25.37-69Z" id="elb86rlmh2lq" class="animable" style="transform-origin: 154.705px 216.965px;"></path><path d="M144.06,251.66s-.42,21.08-5,25.75-24.2,5.07-27.39-1.06c-1.52-2.93-1.42-9.33,0-15.4,1.55-6.64,4.67-12.89,8.94-13.75,0,0,9.55,6.79,19.4,1.92h0A2.92,2.92,0,0,1,144.06,251.66Z" style="fill: rgb(38, 50, 56); transform-origin: 127.314px 264.067px;" id="eluzr45nzugv" class="animable"></path><g id="eldlondj6fddd"><path d="M140,249.12c-4.2,1.86-7.27,14.5-12.68,14.64S111.64,261,111.64,261c1.55-6.64,4.67-12.89,8.94-13.75C120.58,247.2,130.13,254,140,249.12Z" style="fill: rgb(255, 255, 255); opacity: 0.2; transform-origin: 125.82px 255.507px;" class="animable" id="eloyo2rxkio3"></path></g><path d="M117.22,260.1l2.24.35s-1.19,5.67-2.24,7.32l-2.73-1S117.09,262.91,117.22,260.1Z" id="eloxsg4wb59bc" class="animable" style="transform-origin: 116.975px 263.935px;"></path><path d="M118,266.22l-.12,0-2.86-1a.43.43,0,0,1-.23-.21.39.39,0,0,1,0-.3l1-2.34a.38.38,0,0,1,.43-.22l2.85.7a.36.36,0,0,1,.24.18.37.37,0,0,1,0,.31l-1,2.62A.39.39,0,0,1,118,266.22Zm-2.36-1.58,2.14.73.69-1.89-2.12-.51Z" style="fill: rgb(255, 255, 255); transform-origin: 117.052px 264.181px;" id="elfhnw3p0way" class="animable"></path><path d="M177.32,191.28c1.39,2.05,10.18,21.18,3.54,24.79s-4.75-15.23-6.61-20S177.32,191.28,177.32,191.28Z" style="fill: rgb(238, 193, 187); transform-origin: 178.572px 203.903px;" id="eljmwt6fneuc" class="animable"></path><path d="M174.87,200.85l8.39-1.57s4.47,23.41-3.92,25C172.9,225.46,174.87,200.85,174.87,200.85Z" style="fill: #FF9900; transform-origin: 179.518px 211.801px;" id="elv34xpvgrocm" class="animable"></path><polygon points="174.03 200.23 174.01 202.27 184.76 201 184.63 198.49 174.03 200.23" style="fill: #FF9900; transform-origin: 179.385px 200.38px;" id="elg6ph6u0hgm8" class="animable"></polygon><g id="elyokhjdgkyof"><polygon points="174.03 200.23 174.01 202.27 184.76 201 184.63 198.49 174.03 200.23" style="fill: rgb(255, 255, 255); opacity: 0.2; transform-origin: 179.385px 200.38px;" class="animable" id="elq1uzhgdwva9"></polygon></g><path d="M166.08,188.41c.42-1.39,6.64.73,9.71,1.65s1.64,4.22,1.64,4.22.78,3.88-2.9,3.19-7.63-1.29-7.82-2.13S165.74,189.56,166.08,188.41Z" style="fill: rgb(238, 193, 187); transform-origin: 171.879px 192.751px;" id="elq2dxbb92k5" class="animable"></path></g><g id="freepik--Mask--inject-2" class="animable animator-hidden" style="transform-origin: 292.515px 206.38px;"><polygon points="306.74 206.62 214.67 169.11 166.91 169.11 166.91 168.61 214.81 168.63 306.93 206.15 306.74 206.62" style="fill: #FF9900; transform-origin: 236.92px 187.615px;" id="el8b68suyfk2d" class="animable"></polygon><g id="el615rrefhhia"><circle cx="306.83" cy="206.38" r="79.21" style="fill: #FF9900; transform-origin: 306.83px 206.38px; transform: rotate(-45deg);" class="animable" id="el1d2jbu5yhk5"></circle></g><g id="elu4xqu8cz6c8"><circle cx="306.83" cy="206.38" r="79.21" style="fill: rgb(255, 255, 255); opacity: 0.7; transform-origin: 306.83px 206.38px; transform: rotate(-45deg);" class="animable" id="elxu5inqtufql"></circle></g><path d="M281.44,246.29c3.4,14.44,16.23,15.3,16.23,15.3S291,255.7,296,245.14c0,0-.81,14,23.1,25a100.53,100.53,0,0,0,12.49,4.71c.25.08.51.17.78.23,0,0,0,0,0,0q4.57,1.4,9.38,2.45A79.55,79.55,0,0,0,380.32,236c1-2.4,1.82-4.86,2.55-7.39a79.06,79.06,0,0,0,3-17.56c.08-1.38.12-2.76.14-4.13,0-1.95-.05-3.87-.17-5.79a79,79,0,0,0-21.73-49.45,80,80,0,0,0-6.29-5.92c-2.58,1.48-5.5,3.09-8.55,4.63-8.08,4.08-17.12,7.74-23.11,7.43H326c-13-.92-35.2,21.89-24,41.58,0,0-1.86,2.53-4.48,6.48C290.78,216.11,279,235.88,281.44,246.29Z" style="fill: #FF9900; transform-origin: 333.561px 211.645px;" id="elgvib46klppj" class="animable"></path><path d="M325.3,283.43a78.86,78.86,0,0,0,16.43-5.92,79.68,79.68,0,0,0,18.49-12.61,58,58,0,0,1,2.63-7.64,57.41,57.41,0,0,1,2.71-5.7c1-1.78,1.64-2.8,1.64-2.8l-3.93.29-1.32.09-3.44.24-2,.16-22.69,1.64q.19,4.65.06,8.47c0,.62,0,1.22-.06,1.8l0,.38c-.06,1.15-.15,2.23-.26,3.26a41.55,41.55,0,0,1-2,9.73c0,.09-.06.18-.1.27C329.65,280.27,327.19,282.48,325.3,283.43Z" style="fill: #FF9900; transform-origin: 346.25px 266.095px;" id="elt1u5ltq6m5" class="animable"></path><g id="elot5ocxrztb8"><path d="M325.3,283.43a78.86,78.86,0,0,0,16.43-5.92,79.68,79.68,0,0,0,18.49-12.61,58,58,0,0,1,2.63-7.64,57.41,57.41,0,0,1,2.71-5.7c1-1.78,1.64-2.8,1.64-2.8l-3.93.29-1.32.09-3.44.24-2,.16-22.69,1.64q.19,4.65.06,8.47c0,.62,0,1.22-.06,1.8l0,.38c-.06,1.15-.15,2.23-.26,3.26a41.55,41.55,0,0,1-2,9.73c0,.09-.06.18-.1.27C329.65,280.27,327.19,282.48,325.3,283.43Z" style="fill: rgb(255, 255, 255); opacity: 0.4; transform-origin: 346.25px 266.095px;" class="animable" id="el22qg19ucnne"></path></g><g id="el32e0fxwuytk"><path d="M333.52,265.09a41.59,41.59,0,0,1-2.07,10c13.18-.24,24.19-9.52,31.39-17.84a55.14,55.14,0,0,1,4.36-8.51l-33.39,2.43A96.47,96.47,0,0,1,333.52,265.09Z" style="opacity: 0.2; isolation: isolate; transform-origin: 349.325px 261.915px;" class="animable" id="el9saqwtas0k"></path></g><path d="M350.7,161.4c-28.56-2.16-38.9,12.43-43.22,41.7-5.39,36.57.79,63.31,37.08,58.16C393.85,254.25,398.11,165,350.7,161.4Z" style="fill: #FF9900; transform-origin: 344.89px 211.543px;" id="elvdccosnzyiq" class="animable"></path><g id="elpjeg0il5t6e"><path d="M350.7,161.4c-28.56-2.16-38.9,12.43-43.22,41.7-5.39,36.57.79,63.31,37.08,58.16C393.85,254.25,398.11,165,350.7,161.4Z" style="fill: rgb(255, 255, 255); opacity: 0.4; transform-origin: 344.89px 211.543px;" class="animable" id="el6ix02aafc4p"></path></g><path d="M289.73,179.93c3.94-23.18,18.22-38.73,28.51-41s16.4,3.78,16.4,3.78,2.94-4.11,10-5.93a79.2,79.2,0,0,1,19.49,14.94,79,79,0,0,1,21.73,49.45c.12,1.92.18,3.84.17,5.79,0,1.37-.06,2.75-.14,4.13a79.06,79.06,0,0,1-3,17.56c-.73,2.53-1.59,5-2.55,7.39a37.66,37.66,0,0,1-8.07,8.2h0l-.06,0a39.17,39.17,0,0,0,2.37-3.61,47.48,47.48,0,0,0,3.36-6.87,38.66,38.66,0,0,0,1.39-4.26c1.44-5.41,1.78-11.68-1-17.67,0,0-.32-.69-.85-1.91-.05-.13-.12-.26-.17-.4-.2-.48-.43-1-.66-1.61-.46-1.15-1-2.53-1.55-4.07-25.05,1.73-18.68-23.45-24.15-33.73-3.55-6.67-9.95-7.29-14.19-6.83h-.05a34.81,34.81,0,0,0-3.63.73h0l-.56.18-.27,0a29.16,29.16,0,0,0-17.65,14,.51.51,0,0,0-.09.16c-2.94,5.12-5.14,11.78-6.25,20.38v.06c0,.12,0,.23-.05.35a.18.18,0,0,0,0-.05h0v0a63.11,63.11,0,0,1,5.35-25.38C301,187.44,304,210.08,304,210.08a23.47,23.47,0,0,1-6.41-4.18C292.75,201.6,287.41,193.56,289.73,179.93Z" style="fill: #FF9900; transform-origin: 337.601px 190.51px;" id="el72yw5y48qfm" class="animable"></path><path d="M376.77,229.94q1.32-.15,2.52-.39l.74-.14a26.58,26.58,0,0,0,2.84-.77,79.06,79.06,0,0,0,3-17.56c.08-1.38.12-2.76.14-4.13a10,10,0,0,0-2.05,0,11.35,11.35,0,0,0-4.75,1.61h0c-.33.19-.64.42-.95.64a10,10,0,0,0-.88.73,13,13,0,0,0-4.28,7.59C372,227.12,373.57,230.34,376.77,229.94Z" style="fill: #FF9900; transform-origin: 379.38px 218.435px;" id="el72qppedz00y" class="animable"></path><g id="el7ymaeiyxpo"><path d="M376.77,229.94q1.32-.15,2.52-.39l.74-.14a26.58,26.58,0,0,0,2.84-.77,79.06,79.06,0,0,0,3-17.56c.08-1.38.12-2.76.14-4.13a10,10,0,0,0-2.05,0,11.35,11.35,0,0,0-4.75,1.61h0c-.33.19-.64.42-.95.64a10,10,0,0,0-.88.73,13,13,0,0,0-4.28,7.59C372,227.12,373.57,230.34,376.77,229.94Z" style="fill: rgb(255, 255, 255); opacity: 0.4; transform-origin: 379.38px 218.435px;" class="animable" id="el3yh15f6vq0i"></path></g><path d="M322.66,206.63l37.06,11.15s-5.85,18.19,2.52,31.11a69,69,0,0,1-30.9,13s-26.28-2.61-30.43-27.3c-1.78-10.52,5.11-22.2,5.11-22.2Z" style="fill: #FF9900; transform-origin: 331.428px 234.26px;" id="eldyt0ncbtc2p" class="animable"></path><g id="elec8i8umqohi"><path d="M362.24,248.89a68.82,68.82,0,0,1-30.9,13,30.94,30.94,0,0,1-3.39-.6c-7.24-1.67-23.82-7.5-27.06-26.7-1.29-7.71,2-16,3.92-19.91a25.67,25.67,0,0,1,1.2-2.3l16.64-5.77,37.08,11.19S353.89,236,362.24,248.89Z" style="fill: rgb(255, 255, 255); opacity: 0.7; transform-origin: 331.419px 234.25px;" class="animable" id="elh9pq8g5vdf8"></path></g><path d="M360,248.48c-3,2.16-18.23,9.45-32,12.81-7.24-1.67-23.82-7.5-27.06-26.7-1.29-7.71,2-16,3.92-19.91l16.57-6.56,36.22,10.81C356.4,223.7,353.73,237.41,360,248.48Z" style="fill: rgb(255, 255, 255); transform-origin: 330.324px 234.705px;" id="elni0mdgfi4e" class="animable"></path><g id="elmkba23qvgb"><path d="M331.34,261.89a30.94,30.94,0,0,1-3.39-.6c-7.24-1.67-23.82-7.5-27.06-26.7-1.29-7.71,2-16,3.92-19.91a25.67,25.67,0,0,1,1.2-2.3l16.64-5.77S297,242.6,331.34,261.89Z" style="opacity: 0.2; isolation: isolate; transform-origin: 315.969px 234.25px;" class="animable" id="el87hjleokvtr"></path></g><path d="M354.33,221.08a.79.79,0,0,1-.39-.21.85.85,0,0,1,0-1.21c.27-.29,6.81-7,24.3-12.19a.86.86,0,1,1,.48,1.65c-17,5-23.47,11.65-23.54,11.72A.85.85,0,0,1,354.33,221.08Z" style="fill: #FF9900; transform-origin: 366.531px 214.268px;" id="elynesd3uezwi" class="animable"></path><path d="M356.86,251a.86.86,0,0,1,.09-1.69c.13,0,13.26-1.9,23.5-19.54a.86.86,0,1,1,1.49.86C371.24,249.09,357.73,251,357.16,251A.76.76,0,0,1,356.86,251Z" style="fill: #FF9900; transform-origin: 369.127px 240.177px;" id="elpjhjvmfgf9c" class="animable"></path><g id="elzvllgiep4l"><g style="opacity: 0.8; transform-origin: 366.531px 214.268px;" class="animable" id="elgay8sx8p1r7"><path d="M354.33,221.08a.79.79,0,0,1-.39-.21.85.85,0,0,1,0-1.21c.27-.29,6.81-7,24.3-12.19a.86.86,0,1,1,.48,1.65c-17,5-23.47,11.65-23.54,11.72A.85.85,0,0,1,354.33,221.08Z" style="fill: rgb(255, 255, 255); transform-origin: 366.531px 214.268px;" id="el5swefl7qj0c" class="animable"></path></g></g><g id="el4wsvmlnz2v2"><g style="opacity: 0.8; transform-origin: 369.127px 240.177px;" class="animable" id="elbqqa4xi5dgw"><path d="M356.86,251a.86.86,0,0,1,.09-1.69c.13,0,13.26-1.9,23.5-19.54a.86.86,0,1,1,1.49.86C371.24,249.09,357.73,251,357.16,251A.76.76,0,0,1,356.86,251Z" style="fill: rgb(255, 255, 255); transform-origin: 369.127px 240.177px;" id="elicvhiy5vmh" class="animable"></path></g></g><g id="elxjqz29s3gde"><g style="opacity: 0.2; isolation: isolate; transform-origin: 332.5px 240.824px;" class="animable" id="elvs0jsgvy3s"><path d="M321.11,237.32l.9,6.45.68.08c-.12-.92-.25-1.83-.38-2.74,1.12.12,2.23.22,3.35.3,0-.2-.06-.39-.08-.6-1.11-.07-2.24-.17-3.35-.3-.12-.83-.23-1.68-.35-2.52,1.25.13,2.51.24,3.76.32l-.09-.58C324.07,237.63,322.6,237.49,321.11,237.32Z" id="elttwcw4hksb9" class="animable" style="transform-origin: 323.385px 240.585px;"></path><path d="M327,237.8c.3,2.15.59,4.3.9,6.46l.68,0c-.13-.91-.26-1.83-.38-2.74,1.11,0,2.22.07,3.33.08l-.09-.6c-1.1,0-2.21,0-3.33-.07-.12-.85-.23-1.69-.35-2.53,1.25,0,2.49.07,3.73.07,0-.19,0-.39-.07-.59C329.91,237.92,328.44,237.88,327,237.8Z" id="elukgnyeu7a6d" class="animable" style="transform-origin: 329.265px 241.03px;"></path><path d="M332.77,237.91c.31,2.14.6,4.29.9,6.44l.67,0c-.09-.68-.19-1.35-.28-2,.58,0,1.15,0,1.72-.06,1.62-.07,2.48-1,2.29-2.36s-1.28-2.13-2.9-2Zm.76.56c.57,0,1.13,0,1.7-.05,1.28-.06,2,.47,2.17,1.51s-.45,1.65-1.72,1.71l-1.7.06Z" id="elh7gszgxhfm" class="animable" style="transform-origin: 335.433px 241.13px;"></path><path d="M338.5,238.49l.52.37a2.11,2.11,0,0,1,1.62-.9c1-.1,1.55.29,1.64,1a2.09,2.09,0,0,1-.62,1.71c-.75,1-1.51,1.93-2.25,2.89l.06.46c1.48-.12,2.95-.29,4.42-.49,0-.2-.06-.4-.08-.59-1.15.16-2.3.29-3.47.41.62-.79,1.24-1.58,1.85-2.39a2.66,2.66,0,0,0,.74-2.15c-.14-1.08-1-1.63-2.32-1.49A2.74,2.74,0,0,0,338.5,238.49Z" id="el5y5oqxn8g1e" class="animable" style="transform-origin: 341.195px 240.659px;"></path></g></g><path d="M254.3,180l2.8,4.9a1.19,1.19,0,0,1-.51.56,1,1,0,0,1-.76.06l-2.14-5.22Z" style="fill: #FF9900; transform-origin: 255.395px 182.784px;" id="elisr7eefl8i" class="animable"></path><g id="el2xdwsj5tac8"><path d="M254.3,180l2.8,4.9a1.19,1.19,0,0,1-.51.56,1,1,0,0,1-.76.06l-2.14-5.22Z" style="fill: rgb(255, 255, 255); opacity: 0.1; transform-origin: 255.395px 182.784px;" class="animable" id="elfug6slyclv"></path></g><path d="M253.16,180.37c.11.23.55.25,1,0s.69-.57.58-.8-.56-.26-1-.05S253,180.13,253.16,180.37Z" style="fill: #FF9900; transform-origin: 253.941px 179.964px;" id="elrdb9iwvuhl" class="animable"></path><g id="elpnirt96399"><path d="M253.16,180.37c.11.23.55.25,1,0s.69-.57.58-.8-.56-.26-1-.05S253,180.13,253.16,180.37Z" style="fill: rgb(255, 255, 255); opacity: 0.1; transform-origin: 253.941px 179.964px;" class="animable" id="elmufrf56jr4a"></path></g><path d="M246.31,188l5.33,1.85a1.16,1.16,0,0,1,0,.76,1,1,0,0,1-.53.55L246,188.65Z" style="fill: #FF9900; transform-origin: 248.852px 189.58px;" id="el8378berhnro" class="animable"></path><g id="elmusqxyt0ukq"><path d="M246.31,188l5.33,1.85a1.16,1.16,0,0,1,0,.76,1,1,0,0,1-.53.55L246,188.65Z" style="fill: rgb(255, 255, 255); opacity: 0.1; transform-origin: 248.852px 189.58px;" class="animable" id="elys6cdcmwpog"></path></g><path d="M245.72,189.09c.24.1.59-.18.77-.62s.15-.88-.09-1-.59.18-.77.62S245.48,189,245.72,189.09Z" style="fill: #FF9900; transform-origin: 246.06px 188.277px;" id="elkdlqxtb6lr" class="animable"></path><g id="el5lelf0cacjt"><path d="M245.72,189.09c.24.1.59-.18.77-.62s.15-.88-.09-1-.59.18-.77.62S245.48,189,245.72,189.09Z" style="fill: rgb(255, 255, 255); opacity: 0.1; transform-origin: 246.06px 188.277px;" class="animable" id="elxh9yqeq70w"></path></g><path d="M247.84,204.61l4.58-3.31a1.22,1.22,0,0,1,.62.45,1,1,0,0,1,.13.75l-5,2.68Z" style="fill: #FF9900; transform-origin: 250.517px 203.24px;" id="eloco8vn2zj0r" class="animable"></path><g id="elaymx7gkyb"><path d="M247.84,204.61l4.58-3.31a1.22,1.22,0,0,1,.62.45,1,1,0,0,1,.13.75l-5,2.68Z" style="fill: rgb(255, 255, 255); opacity: 0.1; transform-origin: 250.517px 203.24px;" class="animable" id="elpjid0bnqot"></path></g><path d="M248.38,205.7c.22-.14.19-.58-.06-1s-.64-.62-.86-.48-.2.57.06,1S248.16,205.83,248.38,205.7Z" style="fill: #FF9900; transform-origin: 247.918px 204.959px;" id="el8qn2hrql07e" class="animable"></path><g id="elj1faanbzr9"><path d="M248.38,205.7c.22-.14.19-.58-.06-1s-.64-.62-.86-.48-.2.57.06,1S248.16,205.83,248.38,205.7Z" style="fill: rgb(255, 255, 255); opacity: 0.1; transform-origin: 247.918px 204.959px;" class="animable" id="el4uiy7e4cit5"></path></g><path d="M255.45,210.14,257,204.7a1.21,1.21,0,0,1,.76,0,1.11,1.11,0,0,1,.58.5l-2.22,5.2Z" style="fill: #FF9900; transform-origin: 256.895px 207.519px;" id="elt6452pk3y2" class="animable"></path><g id="ele6p7512ltrn"><path d="M255.45,210.14,257,204.7a1.21,1.21,0,0,1,.76,0,1.11,1.11,0,0,1,.58.5l-2.22,5.2Z" style="fill: rgb(255, 255, 255); opacity: 0.1; transform-origin: 256.895px 207.519px;" class="animable" id="ele33gml6157"></path></g><path d="M256.55,210.66c.09-.25-.21-.57-.66-.73s-.89-.09-1,.16.21.57.67.73S256.46,210.9,256.55,210.66Z" style="fill: #FF9900; transform-origin: 255.717px 210.374px;" id="eloum2avtk6f" class="animable"></path><g id="eltuliyxob29m"><path d="M256.55,210.66c.09-.25-.21-.57-.66-.73s-.89-.09-1,.16.21.57.67.73S256.46,210.9,256.55,210.66Z" style="fill: rgb(255, 255, 255); opacity: 0.1; transform-origin: 255.717px 210.374px;" class="animable" id="el46dvala8isf"></path></g><path d="M266.42,208.89l-2.7-5a1.19,1.19,0,0,1,.52-.55,1.06,1.06,0,0,1,.76,0l2,5.27Z" style="fill: #FF9900; transform-origin: 265.36px 206.08px;" id="el4p8d0xpk1wv" class="animable"></path><g id="elspg9gxjwmo"><path d="M266.42,208.89l-2.7-5a1.19,1.19,0,0,1,.52-.55,1.06,1.06,0,0,1,.76,0l2,5.27Z" style="fill: rgb(255, 255, 255); opacity: 0.1; transform-origin: 265.36px 206.08px;" class="animable" id="elk39gen4x4o"></path></g><path d="M267.57,208.5c-.11-.24-.55-.26-1-.06s-.69.55-.58.79.54.26,1,.06S267.68,208.74,267.57,208.5Z" style="fill: #FF9900; transform-origin: 266.78px 208.865px;" id="elz4j60oloaxs" class="animable"></path><g id="elgzu97dh6nps"><path d="M267.57,208.5c-.11-.24-.55-.26-1-.06s-.69.55-.58.79.54.26,1,.06S267.68,208.74,267.57,208.5Z" style="fill: rgb(255, 255, 255); opacity: 0.1; transform-origin: 266.78px 208.865px;" class="animable" id="elpdirjtgw3y"></path></g><path d="M278.8,192.81l-5.5,1.29a1.2,1.2,0,0,1-.39-.65,1,1,0,0,1,.16-.74l5.62-.57Z" style="fill: #FF9900; transform-origin: 275.847px 193.12px;" id="elwrmiz1zmuc" class="animable"></path><g id="el1wcff9wsx7n"><path d="M278.8,192.81l-5.5,1.29a1.2,1.2,0,0,1-.39-.65,1,1,0,0,1,.16-.74l5.62-.57Z" style="fill: rgb(255, 255, 255); opacity: 0.1; transform-origin: 275.847px 193.12px;" class="animable" id="elsot0h2weugc"></path></g><path d="M278.72,191.6c-.25,0-.4.46-.32.93s.36.82.61.78.4-.47.32-.94S279,191.55,278.72,191.6Z" style="fill: #FF9900; transform-origin: 278.865px 192.454px;" id="elvo2totlnz2r" class="animable"></path><g id="el0key81kshw1j"><path d="M278.72,191.6c-.25,0-.4.46-.32.93s.36.82.61.78.4-.47.32-.94S279,191.55,278.72,191.6Z" style="fill: rgb(255, 255, 255); opacity: 0.1; transform-origin: 278.865px 192.454px;" class="animable" id="ela3jrgjpgfe"></path></g><path d="M267.91,181l-2.26,5.18a1.24,1.24,0,0,1-.75-.07,1,1,0,0,1-.5-.58l2.91-4.84Z" style="fill: #FF9900; transform-origin: 266.155px 183.449px;" id="elqhd716i5ts8" class="animable"></path><g id="elc1wzuqtvfz5"><path d="M267.91,181l-2.26,5.18a1.24,1.24,0,0,1-.75-.07,1,1,0,0,1-.5-.58l2.91-4.84Z" style="fill: rgb(255, 255, 255); opacity: 0.1; transform-origin: 266.155px 183.449px;" class="animable" id="elpae4b45up8"></path></g><path d="M266.89,180.29c-.12.23.13.59.56.81s.87.21,1,0-.13-.59-.55-.81S267,180.06,266.89,180.29Z" style="fill: #FF9900; transform-origin: 267.672px 180.691px;" id="elj3exp74qfq" class="animable"></path><g id="el48dhw1zs8vn"><path d="M266.89,180.29c-.12.23.13.59.56.81s.87.21,1,0-.13-.59-.55-.81S267,180.06,266.89,180.29Z" style="fill: rgb(255, 255, 255); opacity: 0.1; transform-origin: 267.672px 180.691px;" class="animable" id="elri9l5upd3m"></path></g><path d="M274.09,202.92l-5.15-2.32a1.19,1.19,0,0,1,.09-.76,1,1,0,0,1,.57-.49l4.81,3Z" style="fill: #FF9900; transform-origin: 271.662px 201.135px;" id="el8kn8hgbzhyi" class="animable"></path><g id="elsbkr4lsa2ej"><path d="M274.09,202.92l-5.15-2.32a1.19,1.19,0,0,1,.09-.76,1,1,0,0,1,.57-.49l4.81,3Z" style="fill: rgb(255, 255, 255); opacity: 0.1; transform-origin: 271.662px 201.135px;" class="animable" id="el8ho19gbgri9"></path></g><path d="M274.77,201.91c-.23-.12-.6.12-.83.55s-.22.86,0,1,.6-.12.82-.54S275,202,274.77,201.91Z" style="fill: #FF9900; transform-origin: 274.353px 202.689px;" id="el7tv0ygk8vxv" class="animable"></path><g id="elf811s8e6irc"><path d="M274.77,201.91c-.23-.12-.6.12-.83.55s-.22.86,0,1,.6-.12.82-.54S275,202,274.77,201.91Z" style="fill: rgb(255, 255, 255); opacity: 0.1; transform-origin: 274.353px 202.689px;" class="animable" id="eljlu88j5obk"></path></g><circle cx="261.02" cy="194.92" r="13.2" style="fill: #FF9900; transform-origin: 261.02px 194.92px;" id="ele3tsyf77hvp" class="animable"></circle><g id="el0rcrsn9r3uo"><circle cx="261.02" cy="194.92" r="13.2" style="fill: rgb(255, 255, 255); opacity: 0.2; transform-origin: 261.02px 194.92px;" class="animable" id="elyqli30bf7zn"></circle></g><path d="M261.36,177.18l.37,5.64a1.22,1.22,0,0,1-.71.28,1,1,0,0,1-.7-.28l.36-5.64Z" style="fill: #FF9900; transform-origin: 261.025px 180.14px;" id="elcz9ro6lvtmd" class="animable"></path><g id="elhkdgse266vm"><path d="M261.36,177.18l.37,5.64a1.22,1.22,0,0,1-.71.28,1,1,0,0,1-.7-.28l.36-5.64Z" style="fill: rgb(255, 255, 255); opacity: 0.4; transform-origin: 261.025px 180.14px;" class="animable" id="elxuz74h11qh"></path></g><path d="M260.16,177.06c0,.26.39.47.86.47s.87-.21.87-.47-.39-.47-.87-.47S260.16,176.8,260.16,177.06Z" style="fill: #FF9900; transform-origin: 261.025px 177.06px;" id="elub923u4zei" class="animable"></path><g id="elih9b23xbua"><path d="M260.16,177.06c0,.26.39.47.86.47s.87-.21.87-.47-.39-.47-.87-.47S260.16,176.8,260.16,177.06Z" style="fill: rgb(255, 255, 255); opacity: 0.2; transform-origin: 261.025px 177.06px;" class="animable" id="elvajsa1y55k"></path></g><path d="M251,183.52l4.43,3.5a1.18,1.18,0,0,1-.26.71,1.08,1.08,0,0,1-.68.34l-3.95-4Z" style="fill: #FF9900; transform-origin: 252.985px 185.795px;" id="ela5m4uoeuh3j" class="animable"></path><g id="eljsfzgerwam"><path d="M251,183.52l4.43,3.5a1.18,1.18,0,0,1-.26.71,1.08,1.08,0,0,1-.68.34l-3.95-4Z" style="fill: rgb(255, 255, 255); opacity: 0.4; transform-origin: 252.985px 185.795px;" class="animable" id="el4v1k2q6ziys"></path></g><path d="M250.11,184.33c.19.17.61,0,.93-.33s.42-.79.23-1-.61,0-.93.33S249.92,184.16,250.11,184.33Z" style="fill: #FF9900; transform-origin: 250.69px 183.656px;" id="elne1s4ht0lho" class="animable"></path><g id="elbdy4j06gbh9"><path d="M250.11,184.33c.19.17.61,0,.93-.33s.42-.79.23-1-.61,0-.93.33S249.92,184.16,250.11,184.33Z" style="fill: rgb(255, 255, 255); opacity: 0.2; transform-origin: 250.69px 183.656px;" class="animable" id="el42h7vxwhvah"></path></g><path d="M273.92,182.78l-4,4a1.21,1.21,0,0,1-.68-.34,1,1,0,0,1-.26-.71l4.46-3.47Z" style="fill: #FF9900; transform-origin: 271.45px 184.52px;" id="elmoxf726ogip" class="animable"></path><g id="el5lsxy7efupw"><path d="M273.92,182.78l-4,4a1.21,1.21,0,0,1-.68-.34,1,1,0,0,1-.26-.71l4.46-3.47Z" style="fill: rgb(255, 255, 255); opacity: 0.4; transform-origin: 271.45px 184.52px;" class="animable" id="el2a8182eeu6i"></path></g><path d="M273.21,181.79c-.19.18-.09.61.23,1s.73.51.93.34.09-.6-.23-1S273.41,181.62,273.21,181.79Z" style="fill: #FF9900; transform-origin: 273.792px 182.459px;" id="eldifu0tvs66a" class="animable"></path><g id="eliv4wv4h3rb"><path d="M273.21,181.79c-.19.18-.09.61.23,1s.73.51.93.34.09-.6-.23-1S273.41,181.62,273.21,181.79Z" style="fill: rgb(255, 255, 255); opacity: 0.2; transform-origin: 273.792px 182.459px;" class="animable" id="el7zwyalxzkgv"></path></g><path d="M275,189.44l-4.08,2.09a1.32,1.32,0,0,1-.48-.56,1.14,1.14,0,0,1-.06-.74l4.36-1.42Z" style="fill: #FF9900; transform-origin: 272.672px 190.17px;" id="elezdm4u4x714" class="animable"></path><g id="ely91llm87ajk"><path d="M275,189.44l-4.08,2.09a1.32,1.32,0,0,1-.48-.56,1.14,1.14,0,0,1-.06-.74l4.36-1.42Z" style="fill: rgb(255, 255, 255); opacity: 0.4; transform-origin: 272.672px 190.17px;" class="animable" id="elikd9pi58io"></path></g><path d="M274.48,188.35c-.28.11-.35.56-.17,1s.56.7.84.59.35-.57.16-1S274.76,188.23,274.48,188.35Z" style="fill: #FF9900; transform-origin: 274.814px 189.144px;" id="eldff7dxt8y6" class="animable"></path><g id="el6xu7bin4e88"><path d="M274.48,188.35c-.28.11-.35.56-.17,1s.56.7.84.59.35-.57.16-1S274.76,188.23,274.48,188.35Z" style="fill: rgb(255, 255, 255); opacity: 0.2; transform-origin: 274.814px 189.144px;" class="animable" id="el0wc4evs02raj"></path></g><path d="M266,186.07l-.42,2s-.48.33-.84.18-.46-.72-.46-.72l1.09-1.67Z" style="fill: #FF9900; transform-origin: 265.14px 187.075px;" id="elnyjh5jm99m" class="animable"></path><g id="elzl7x9x92pfl"><path d="M266,186.07l-.42,2s-.48.33-.84.18-.46-.72-.46-.72l1.09-1.67Z" style="fill: rgb(255, 255, 255); opacity: 0.5; transform-origin: 265.14px 187.075px;" class="animable" id="elhb68i6djfd"></path></g><path d="M264.73,186a.81.81,0,0,0,.5,1,.77.77,0,1,0-.5-1Z" style="fill: #FF9900; transform-origin: 265.459px 186.263px;" id="el7z2h3qlckk6" class="animable"></path><g id="elkohdwduyv8"><path d="M264.73,186a.81.81,0,0,0,.5,1,.77.77,0,1,0-.5-1Z" style="fill: rgb(255, 255, 255); opacity: 0.3; transform-origin: 265.459px 186.263px;" class="animable" id="elg6y0innq7k"></path></g><path d="M258.64,185.25l1,1.73s-.14.57-.5.7a1,1,0,0,1-.83-.23l-.31-2Z" style="fill: #FF9900; transform-origin: 258.82px 186.473px;" id="elw0kp8e8dmkg" class="animable"></path><g id="el6le2b4biryv"><path d="M258.64,185.25l1,1.73s-.14.57-.5.7a1,1,0,0,1-.83-.23l-.31-2Z" style="fill: rgb(255, 255, 255); opacity: 0.5; transform-origin: 258.82px 186.473px;" class="animable" id="elwr4qy2bhwf"></path></g><path d="M257.66,186.08a.87.87,0,1,0,.56-1A.82.82,0,0,0,257.66,186.08Z" style="fill: #FF9900; transform-origin: 258.506px 185.9px;" id="elbqwmwcjgzru" class="animable"></path><g id="eleag8lv011lw"><path d="M257.66,186.08a.87.87,0,1,0,.56-1A.82.82,0,0,0,257.66,186.08Z" style="fill: rgb(255, 255, 255); opacity: 0.3; transform-origin: 258.506px 185.9px;" class="animable" id="el66bqin5qpco"></path></g><path d="M252.88,190.66l2,.43s.33.49.18.84a1,1,0,0,1-.73.46l-1.66-1.11Z" style="fill: #FF9900; transform-origin: 253.885px 191.525px;" id="elxy2fab4omj" class="animable"></path><g id="el7dfwbudoki"><path d="M252.88,190.66l2,.43s.33.49.18.84a1,1,0,0,1-.73.46l-1.66-1.11Z" style="fill: rgb(255, 255, 255); opacity: 0.5; transform-origin: 253.885px 191.525px;" class="animable" id="elepfqfdoq7g"></path></g><path d="M252.83,192a.88.88,0,0,0,.68-1.6.88.88,0,0,0-.68,1.6Z" style="fill: #FF9900; transform-origin: 253.17px 191.2px;" id="elmwc8ubym0dq" class="animable"></path><g id="elvzwd1z98owk"><path d="M252.83,192a.88.88,0,0,0,.68-1.6.88.88,0,0,0-.68,1.6Z" style="fill: rgb(255, 255, 255); opacity: 0.3; transform-origin: 253.17px 191.2px;" class="animable" id="el3t0axrx9j28"></path></g><path d="M254.43,200.62l1.08-1.68a1.06,1.06,0,0,1,.85.13.94.94,0,0,1,.18.84l-1.62,1.18Z" style="fill: #FF9900; transform-origin: 255.501px 199.996px;" id="elzgakxy2wssl" class="animable"></path><g id="el0j8iqoambm36"><path d="M254.43,200.62l1.08-1.68a1.06,1.06,0,0,1,.85.13.94.94,0,0,1,.18.84l-1.62,1.18Z" style="fill: rgb(255, 255, 255); opacity: 0.5; transform-origin: 255.501px 199.996px;" class="animable" id="el15bkp3x4wi5"></path></g><path d="M255.62,201.11a.87.87,0,1,0-1.15,0A.82.82,0,0,0,255.62,201.11Z" style="fill: #FF9900; transform-origin: 255.045px 200.466px;" id="eleri4mr0wmk" class="animable"></path><g id="el3qhta7mqfpq"><path d="M255.62,201.11a.87.87,0,1,0-1.15,0A.82.82,0,0,0,255.62,201.11Z" style="fill: rgb(255, 255, 255); opacity: 0.3; transform-origin: 255.045px 200.466px;" class="animable" id="eli8a17rmyl9i"></path></g><path d="M262.26,202.6l-.85-1.82s.19-.55.57-.64a.93.93,0,0,1,.8.3l.13,2Z" style="fill: #FF9900; transform-origin: 262.16px 201.367px;" id="elok7r96x97bj" class="animable"></path><g id="ell59vlprw7c"><path d="M262.26,202.6l-.85-1.82s.19-.55.57-.64a.93.93,0,0,1,.8.3l.13,2Z" style="fill: rgb(255, 255, 255); opacity: 0.5; transform-origin: 262.16px 201.367px;" class="animable" id="elrc4oe1f3muo"></path></g><path d="M263.31,201.85a.87.87,0,0,0-1.68.43.87.87,0,0,0,1.68-.43Z" style="fill: #FF9900; transform-origin: 262.47px 202.065px;" id="elk6zx0l925m" class="animable"></path><g id="elhlngwlwclbw"><path d="M263.31,201.85a.87.87,0,0,0-1.68.43.87.87,0,0,0,1.68-.43Z" style="fill: rgb(255, 255, 255); opacity: 0.3; transform-origin: 262.47px 202.065px;" class="animable" id="elrkpqdvmvued"></path></g><path d="M267.71,199.91l-1.86-.74a1.08,1.08,0,0,1,0-.86.93.93,0,0,1,.79-.33l1.46,1.36Z" style="fill: #FF9900; transform-origin: 266.93px 198.943px;" id="elctfnmhyxnkm" class="animable"></path><g id="elvxa53art3kc"><path d="M267.71,199.91l-1.86-.74a1.08,1.08,0,0,1,0-.86.93.93,0,0,1,.79-.33l1.46,1.36Z" style="fill: rgb(255, 255, 255); opacity: 0.5; transform-origin: 266.93px 198.943px;" class="animable" id="el7y41o1h89dr"></path></g><path d="M268,198.65a.82.82,0,0,0-1.12.32.83.83,0,0,0,.18,1.14.87.87,0,0,0,.94-1.46Z" style="fill: #FF9900; transform-origin: 267.541px 199.382px;" id="eljmp8ug200mh" class="animable"></path><g id="el8imc27mgagk"><path d="M268,198.65a.82.82,0,0,0-1.12.32.83.83,0,0,0,.18,1.14.87.87,0,0,0,.94-1.46Z" style="fill: rgb(255, 255, 255); opacity: 0.3; transform-origin: 267.541px 199.382px;" class="animable" id="elp9rdvuu7dye"></path></g><path d="M269.24,194.22l-1.95.44s-.5-.3-.52-.68a1,1,0,0,1,.46-.73l2,.29Z" style="fill: #FF9900; transform-origin: 268.005px 193.955px;" id="el7vsmcci0mqr" class="animable"></path><g id="el19wtir6sa7jj"><path d="M269.24,194.22l-1.95.44s-.5-.3-.52-.68a1,1,0,0,1,.46-.73l2,.29Z" style="fill: rgb(255, 255, 255); opacity: 0.5; transform-origin: 268.005px 193.955px;" class="animable" id="elfdwd8a2tofk"></path></g><path d="M268.73,193a.83.83,0,0,0-.73.9.77.77,0,1,0,1.53-.06A.82.82,0,0,0,268.73,193Z" style="fill: #FF9900; transform-origin: 268.767px 193.861px;" id="elotw6xjm3ck9" class="animable"></path><g id="elzsb27m5fa9"><path d="M268.73,193a.83.83,0,0,0-.73.9.77.77,0,1,0,1.53-.06A.82.82,0,0,0,268.73,193Z" style="fill: rgb(255, 255, 255); opacity: 0.3; transform-origin: 268.767px 193.861px;" class="animable" id="elj8al7op0ybe"></path></g><path d="M244.63,192.53l5.64.43a1.21,1.21,0,0,1,.17.74,1.05,1.05,0,0,1-.37.66l-5.53-1.16Z" style="fill: #FF9900; transform-origin: 247.493px 193.445px;" id="eluvjfopahfs" class="animable"></path><g id="elv863fddry1d"><path d="M244.63,192.53l5.64.43a1.21,1.21,0,0,1,.17.74,1.05,1.05,0,0,1-.37.66l-5.53-1.16Z" style="fill: rgb(255, 255, 255); opacity: 0.4; transform-origin: 247.493px 193.445px;" class="animable" id="eluowzxr88na"></path></g><path d="M244.34,193.7c.26,0,.52-.31.59-.79s-.09-.89-.34-.92-.52.31-.59.79S244.08,193.67,244.34,193.7Z" style="fill: #FF9900; transform-origin: 244.465px 192.844px;" id="el1ts6ypw937i" class="animable"></path><g id="eladkmzf7ljn4"><path d="M244.34,193.7c.26,0,.52-.31.59-.79s-.09-.89-.34-.92-.52.31-.59.79S244.08,193.67,244.34,193.7Z" style="fill: rgb(255, 255, 255); opacity: 0.2; transform-origin: 244.465px 192.844px;" class="animable" id="elganp5sm5tlk"></path></g><path d="M246.67,199.66l5.21-2.2a1.18,1.18,0,0,1,.49.58,1,1,0,0,1,0,.76l-5.44,1.5Z" style="fill: #FF9900; transform-origin: 249.558px 198.88px;" id="elt95vjzjbt" class="animable"></path><g id="elbvt8azm2qg"><path d="M246.67,199.66l5.21-2.2a1.18,1.18,0,0,1,.49.58,1,1,0,0,1,0,.76l-5.44,1.5Z" style="fill: rgb(255, 255, 255); opacity: 0.4; transform-origin: 249.558px 198.88px;" class="animable" id="elm9xa1evfzq"></path></g><path d="M247,200.84c.25-.08.32-.52.16-1s-.48-.75-.73-.66-.31.52-.16,1S246.71,200.93,247,200.84Z" style="fill: #FF9900; transform-origin: 246.717px 200.01px;" id="elw30ut1bky5b" class="animable"></path><g id="elnpqbcaoexe"><path d="M247,200.84c.25-.08.32-.52.16-1s-.48-.75-.73-.66-.31.52-.16,1S246.71,200.93,247,200.84Z" style="fill: rgb(255, 255, 255); opacity: 0.2; transform-origin: 246.717px 200.01px;" class="animable" id="el32kv14fepoi"></path></g><path d="M261.6,212.28l-1-5.56a1.16,1.16,0,0,1,.67-.36,1.07,1.07,0,0,1,.73.21l.24,5.64Z" style="fill: #FF9900; transform-origin: 261.42px 209.318px;" id="ellp5x0n8w91" class="animable"></path><g id="elqv6h2cc5v7r"><path d="M261.6,212.28l-1-5.56a1.16,1.16,0,0,1,.67-.36,1.07,1.07,0,0,1,.73.21l.24,5.64Z" style="fill: rgb(255, 255, 255); opacity: 0.4; transform-origin: 261.42px 209.318px;" class="animable" id="elfo0bems2rsm"></path></g><path d="M262.81,212.28c0-.26-.43-.43-.91-.38s-.84.3-.81.56.44.43.91.38S262.84,212.53,262.81,212.28Z" style="fill: #FF9900; transform-origin: 261.95px 212.37px;" id="elg69bkl1uepw" class="animable"></path><g id="elz7cod7plzn"><path d="M262.81,212.28c0-.26-.43-.43-.91-.38s-.84.3-.81.56.44.43.91.38S262.84,212.53,262.81,212.28Z" style="fill: rgb(255, 255, 255); opacity: 0.2; transform-origin: 261.95px 212.37px;" class="animable" id="elxbffk12uh0b"></path></g><path d="M277.21,199.18l-5.54-1.06a1.19,1.19,0,0,1-.1-.76,1,1,0,0,1,.45-.61l5.36,1.77Z" style="fill: #FF9900; transform-origin: 274.463px 197.965px;" id="ely92iwqsgce" class="animable"></path><g id="el12fulm5qm4l9"><path d="M277.21,199.18l-5.54-1.06a1.19,1.19,0,0,1-.1-.76,1,1,0,0,1,.45-.61l5.36,1.77Z" style="fill: rgb(255, 255, 255); opacity: 0.4; transform-origin: 274.463px 197.965px;" class="animable" id="el2fws0kqvi6t"></path></g><path d="M277.64,198.05c-.25-.07-.56.25-.68.72s0,.89.24.95.55-.25.67-.72S277.89,198.11,277.64,198.05Z" style="fill: #FF9900; transform-origin: 277.417px 198.884px;" id="el0bpdi299cefa" class="animable"></path><g id="eljq0er1zqdgr"><path d="M277.64,198.05c-.25-.07-.56.25-.68.72s0,.89.24.95.55-.25.67-.72S277.89,198.11,277.64,198.05Z" style="fill: rgb(255, 255, 255); opacity: 0.2; transform-origin: 277.417px 198.884px;" class="animable" id="el4mlwpje3ois"></path></g><path d="M250.66,209.3l2.94-4.82a1.25,1.25,0,0,1,.74.18,1,1,0,0,1,.42.64l-3.55,4.39Z" style="fill: #FF9900; transform-origin: 252.71px 207.083px;" id="elwbdftip67r" class="animable"></path><g id="eleywr54qfzy7"><path d="M250.66,209.3l2.94-4.82a1.25,1.25,0,0,1,.74.18,1,1,0,0,1,.42.64l-3.55,4.39Z" style="fill: rgb(255, 255, 255); opacity: 0.4; transform-origin: 252.71px 207.083px;" class="animable" id="elnhfahzgrub"></path></g><path d="M251.57,210.1c.15-.21,0-.61-.44-.88s-.83-.33-1-.12,0,.61.44.88S251.42,210.31,251.57,210.1Z" style="fill: #FF9900; transform-origin: 250.846px 209.6px;" id="el17hhgwylyzf" class="animable"></path><g id="elcer7hc4jkge"><path d="M251.57,210.1c.15-.21,0-.61-.44-.88s-.83-.33-1-.12,0,.61.44.88S251.42,210.31,251.57,210.1Z" style="fill: rgb(255, 255, 255); opacity: 0.2; transform-origin: 250.846px 209.6px;" class="animable" id="el8eq5nhgr5oc"></path></g><path d="M273.55,208.16l-4.29-3.67a1.23,1.23,0,0,1,.29-.71,1,1,0,0,1,.69-.31l3.78,4.21Z" style="fill: #FF9900; transform-origin: 271.64px 205.815px;" id="elwrfmr8f04w" class="animable"></path><g id="eljohc1xqol5k"><path d="M273.55,208.16l-4.29-3.67a1.23,1.23,0,0,1,.29-.71,1,1,0,0,1,.69-.31l3.78,4.21Z" style="fill: rgb(255, 255, 255); opacity: 0.4; transform-origin: 271.64px 205.815px;" class="animable" id="elkvrmablav3j"></path></g><path d="M274.48,207.38c-.19-.18-.61,0-1,.3s-.45.76-.26.94.6.06.94-.29S274.66,207.56,274.48,207.38Z" style="fill: #FF9900; transform-origin: 273.835px 208.006px;" id="elhq0108hjgf" class="animable"></path><g id="eli33bm0wwpmi"><path d="M274.48,207.38c-.19-.18-.61,0-1,.3s-.45.76-.26.94.6.06.94-.29S274.66,207.56,274.48,207.38Z" style="fill: rgb(255, 255, 255); opacity: 0.2; transform-origin: 273.835px 208.006px;" class="animable" id="elzurm7pycby"></path></g><g id="el3hyrb2fouk4"><path d="M263.37,191.56a.9.9,0,1,0,.89-.9A.89.89,0,0,0,263.37,191.56Z" style="fill: rgb(255, 255, 255); opacity: 0.2; transform-origin: 264.27px 191.56px;" class="animable" id="elmwnze7drmg"></path></g><g id="el6bfwzzlayuj"><path d="M262.16,196.75a.9.9,0,1,0,.9-.9A.89.89,0,0,0,262.16,196.75Z" style="fill: rgb(255, 255, 255); opacity: 0.2; transform-origin: 263.06px 196.75px;" class="animable" id="elntd4mj7dvyk"></path></g><g id="el4nmp1ofcy88"><path d="M269.14,200.3a.9.9,0,1,0,.89-.89A.89.89,0,0,0,269.14,200.3Z" style="fill: rgb(255, 255, 255); opacity: 0.2; transform-origin: 270.04px 200.31px;" class="animable" id="elenriq4x6sb"></path></g><g id="elcue3yj1bur9"><circle cx="265.73" cy="203.44" r="0.9" style="fill: rgb(255, 255, 255); opacity: 0.2; transform-origin: 265.73px 203.44px;" class="animable" id="elfox4wafauj"></circle></g><g id="elyze26swb7ih"><path d="M256.65,190.72a.9.9,0,1,0,.9-.89A.9.9,0,0,0,256.65,190.72Z" style="fill: rgb(255, 255, 255); opacity: 0.2; transform-origin: 257.55px 190.73px;" class="animable" id="el4vqrinl988q"></path></g><g id="eley8sbo9i44r"><path d="M252.79,195.3a.9.9,0,1,0,.9-.9A.89.89,0,0,0,252.79,195.3Z" style="fill: rgb(255, 255, 255); opacity: 0.2; transform-origin: 253.69px 195.3px;" class="animable" id="eln0akbr98qu"></path></g><g id="elw86ik9pjeif"><path d="M251.53,201.65a.9.9,0,1,0,.9-.9A.9.9,0,0,0,251.53,201.65Z" style="fill: rgb(255, 255, 255); opacity: 0.2; transform-origin: 252.43px 201.65px;" class="animable" id="eli0mm4afvk2"></path></g><g id="el8seetv81e1"><path d="M260.13,193.25a.9.9,0,1,0,.89-.89A.9.9,0,0,0,260.13,193.25Z" style="fill: rgb(255, 255, 255); opacity: 0.2; transform-origin: 261.03px 193.26px;" class="animable" id="el21sxikv6k5g"></path></g><g id="elqtokg0gvmz8"><path d="M257.41,202.39a.9.9,0,1,0,.9-.89A.9.9,0,0,0,257.41,202.39Z" style="fill: rgb(255, 255, 255); opacity: 0.2; transform-origin: 258.31px 202.4px;" class="animable" id="elwkmbc0qnk0b"></path></g><g id="elh4olm9hh8mf"><path d="M261.73,185.25a.9.9,0,1,0,.9-.9A.89.89,0,0,0,261.73,185.25Z" style="fill: rgb(255, 255, 255); opacity: 0.2; transform-origin: 262.63px 185.25px;" class="animable" id="elmfmb7onvtfe"></path></g><g id="el2of5b1g4npm"><circle cx="251.59" cy="189.38" r="0.9" style="fill: rgb(255, 255, 255); opacity: 0.2; transform-origin: 251.59px 189.38px;" class="animable" id="elqbj8e1ksq6"></circle></g><g id="elmxj62874tah"><circle cx="268.34" cy="189.15" r="0.89" style="fill: rgb(255, 255, 255); opacity: 0.2; transform-origin: 268.34px 189.15px;" class="animable" id="elfshx97jv8xe"></circle></g><g id="elpr97svhuk5"><circle cx="260.97" cy="189.83" r="0.45" style="fill: rgb(255, 255, 255); opacity: 0.2; transform-origin: 260.97px 189.83px;" class="animable" id="el2rkrbn31cal"></circle></g><g id="elcyo8ltaw6af"><path d="M255.9,184.66a.45.45,0,1,0,.44-.45A.45.45,0,0,0,255.9,184.66Z" style="fill: rgb(255, 255, 255); opacity: 0.2; transform-origin: 256.35px 184.66px;" class="animable" id="eltjdfp9l68xf"></path></g><g id="elmywrkomxike"><circle cx="266.45" cy="184.8" r="0.45" style="fill: rgb(255, 255, 255); opacity: 0.2; transform-origin: 266.45px 184.8px;" class="animable" id="ely5ji3gsf5i9"></circle></g><g id="el81qt2zfbbwn"><circle cx="271.91" cy="193.96" r="0.45" style="fill: rgb(255, 255, 255); opacity: 0.2; transform-origin: 271.91px 193.96px;" class="animable" id="elxo7avg2pald"></circle></g><g id="elrr9gr6pmaho"><circle cx="257.8" cy="195.11" r="0.45" style="fill: rgb(255, 255, 255); opacity: 0.2; transform-origin: 257.8px 195.11px;" class="animable" id="elka55zcsx2hj"></circle></g><g id="el8oww3cxdk9j"><path d="M249.56,196.64a.45.45,0,1,0,.44-.45A.45.45,0,0,0,249.56,196.64Z" style="fill: rgb(255, 255, 255); opacity: 0.2; transform-origin: 250.01px 196.64px;" class="animable" id="el37mtb2nq5fe"></path></g><g id="elcclvms72s2k"><path d="M258.12,199.07a.45.45,0,1,0,.45-.45A.45.45,0,0,0,258.12,199.07Z" style="fill: rgb(255, 255, 255); opacity: 0.2; transform-origin: 258.57px 199.07px;" class="animable" id="elra75rfd7n0a"></path></g><g id="el4o12h0cpu83"><circle cx="255.73" cy="204.17" r="0.45" style="fill: rgb(255, 255, 255); opacity: 0.2; transform-origin: 255.73px 204.17px;" class="animable" id="elwxjr76jmjef"></circle></g><g id="elyndrmumbl2r"><path d="M260.74,204.17a.45.45,0,0,0,.45.45.45.45,0,1,0,0-.89A.45.45,0,0,0,260.74,204.17Z" style="fill: rgb(255, 255, 255); opacity: 0.2; transform-origin: 261.223px 204.175px;" class="animable" id="el091nut3x2eyi"></path></g><path d="M252.43,259.71a.23.23,0,0,1-.16-.06.24.24,0,0,1,0-.35s.6-.7,1.69-1.85a.25.25,0,1,1,.36.34c-1.08,1.14-1.66,1.83-1.67,1.83A.25.25,0,0,1,252.43,259.71Z" style="fill: rgb(255, 255, 255); transform-origin: 253.304px 258.528px;" id="el4p8ndiuspkq" class="animable"></path><path d="M255.55,256.38a.26.26,0,0,1-.18-.07.24.24,0,0,1,0-.35c1.19-1.2,2.45-2.4,3.75-3.59a.25.25,0,0,1,.35,0,.26.26,0,0,1,0,.36c-1.29,1.18-2.54,2.38-3.72,3.57A.26.26,0,0,1,255.55,256.38Zm5.27-5a.25.25,0,0,1-.18-.08.25.25,0,0,1,0-.36c1.28-1.13,2.62-2.25,4-3.34a.28.28,0,0,1,.36,0,.26.26,0,0,1,0,.36c-1.34,1.07-2.67,2.19-3.95,3.32A.27.27,0,0,1,260.82,251.42Zm5.59-4.61a.23.23,0,0,1-.2-.1.24.24,0,0,1,0-.35c1.38-1.06,2.78-2.09,4.18-3.07a.25.25,0,1,1,.28.41c-1.39,1-2.78,2-4.15,3.06A.3.3,0,0,1,266.41,246.81Zm5.87-4.24a.26.26,0,0,1-.21-.11.25.25,0,0,1,.07-.35c1.44-1,2.92-1.9,4.37-2.78a.26.26,0,0,1,.35.09.25.25,0,0,1-.09.34c-1.45.87-2.92,1.8-4.35,2.77A.25.25,0,0,1,272.28,242.57Zm6.15-3.81a.26.26,0,0,1-.22-.13.25.25,0,0,1,.1-.34c1.52-.87,3.06-1.69,4.57-2.44a.26.26,0,0,1,.34.11.25.25,0,0,1-.12.34c-1.5.75-3,1.56-4.55,2.42A.19.19,0,0,1,278.43,238.76Zm6.43-3.33a.24.24,0,0,1-.23-.15.25.25,0,0,1,.12-.33c1.58-.73,3.19-1.42,4.77-2a.26.26,0,0,1,.32.15.24.24,0,0,1-.14.32c-1.57.61-3.16,1.29-4.74,2Zm6.69-2.76a.26.26,0,0,1-.24-.16.25.25,0,0,1,.16-.32c1.64-.59,3.3-1.12,4.94-1.57a.24.24,0,0,1,.3.17.25.25,0,0,1-.17.31c-1.63.45-3.28,1-4.91,1.56Z" style="fill: rgb(255, 255, 255); transform-origin: 276.007px 243.475px;" id="elobh5lt0j9u8" class="animable"></path><path d="M298.47,230.59a.26.26,0,0,1-.24-.19.24.24,0,0,1,.18-.3c.5-.13,1-.24,1.52-.36-.39-.12-.88-.29-1.47-.5a.25.25,0,0,1,.17-.47c1.47.53,2.34.78,2.35.78a.25.25,0,0,1,0,.49c-.82.16-1.64.35-2.44.54Z" style="fill: rgb(255, 255, 255); transform-origin: 299.701px 229.674px;" id="eldtf9aaggsbl" class="animable"></path><path d="M296.79,228.59l-.09,0c-1.43-.56-2.88-1.19-4.31-1.87a.25.25,0,0,1-.12-.34.26.26,0,0,1,.33-.12c1.42.68,2.87,1.31,4.29,1.87a.24.24,0,0,1,.14.32A.26.26,0,0,1,296.79,228.59Zm-6-2.69a.27.27,0,0,1-.12,0c-1.4-.71-2.79-1.47-4.13-2.25a.26.26,0,0,1-.09-.35.27.27,0,0,1,.35-.09c1.32.78,2.7,1.54,4.1,2.24a.26.26,0,0,1,.11.34A.24.24,0,0,1,290.81,225.9Zm-5.72-3.22a.37.37,0,0,1-.14,0c-1.34-.84-2.65-1.73-3.9-2.64a.25.25,0,0,1,.3-.4c1.23.9,2.54,1.78,3.87,2.61a.26.26,0,0,1,.08.35A.27.27,0,0,1,285.09,222.68Zm-5.39-3.76a.3.3,0,0,1-.15,0c-1.26-1-2.47-2-3.6-3a.25.25,0,0,1,0-.36.25.25,0,0,1,.35,0c1.12,1,2.32,2,3.57,3a.24.24,0,0,1,0,.35A.23.23,0,0,1,279.7,218.92Zm-4.94-4.32a.23.23,0,0,1-.17-.07c-1.13-1.12-2.21-2.28-3.2-3.46a.24.24,0,0,1,0-.35.25.25,0,0,1,.35,0c1,1.17,2.05,2.32,3.17,3.42a.25.25,0,0,1,0,.36A.24.24,0,0,1,274.76,214.6Z" style="fill: rgb(255, 255, 255); transform-origin: 284.172px 219.619px;" id="el1lko41pif6q" class="animable"></path><path d="M270.39,209.7a.23.23,0,0,1-.19-.1c-.52-.66-1-1.34-1.49-2a.25.25,0,0,1,.41-.29c.47.67,1,1.35,1.47,2a.24.24,0,0,1,0,.35A.3.3,0,0,1,270.39,209.7Z" style="fill: rgb(255, 255, 255); transform-origin: 269.665px 208.454px;" id="elncclq1uvm4s" class="animable"></path><path d="M301.82,226.13s-1.19,2.59-.4,8.12a1.92,1.92,0,0,0-2.57-.8s.39-3-2-3.76c0,0,3.56-.69,2.33-3.56C299.2,226.13,300.23,228.41,301.82,226.13Z" style="fill: rgb(255, 255, 255); transform-origin: 299.335px 230.19px;" id="elwk0lmkv8bgp" class="animable"></path><path d="M306.88,286.1c-1.58,0-3.18-.05-4.78-.14a79.73,79.73,0,1,1,4.78.14Zm-.1-158.43A78.71,78.71,0,0,0,302.16,285c1.58.09,3.16.14,4.72.14a78.71,78.71,0,0,0,4.63-157.29C309.93,127.72,308.35,127.67,306.78,127.67Z" style="fill: #FF9900; transform-origin: 306.817px 206.37px;" id="elbkjha6big2u" class="animable"></path><path d="M167.64,168.86a.73.73,0,1,1-.73-.73A.73.73,0,0,1,167.64,168.86Z" style="fill: #FF9900; transform-origin: 166.91px 168.86px;" id="el6z3py50f2x9" class="animable"></path></g><defs>     <filter id="active" height="200%">         <feMorphology in="SourceAlpha" result="DILATED" operator="dilate" radius="2"></feMorphology>                <feFlood flood-color="#32DFEC" flood-opacity="1" result="PINK"></feFlood>        <feComposite in="PINK" in2="DILATED" operator="in" result="OUTLINE"></feComposite>        <feMerge>            <feMergeNode in="OUTLINE"></feMergeNode>            <feMergeNode in="SourceGraphic"></feMergeNode>        </feMerge>    </filter>    <filter id="hover" height="200%">        <feMorphology in="SourceAlpha" result="DILATED" operator="dilate" radius="2"></feMorphology>                <feFlood flood-color="#ff0000" flood-opacity="0.5" result="PINK"></feFlood>        <feComposite in="PINK" in2="DILATED" operator="in" result="OUTLINE"></feComposite>        <feMerge>            <feMergeNode in="OUTLINE"></feMergeNode>            <feMergeNode in="SourceGraphic"></feMergeNode>        </feMerge>            <feColorMatrix type="matrix" values="0   0   0   0   0                0   1   0   0   0                0   0   0   0   0                0   0   0   1   0 "></feColorMatrix>    </filter></defs></svg>